# xmcd
# Track frame offsets:
# 150
# 13835
# 29012
# 41215
# 60425
# 76422
# 92487
# 114260
# 128357
# 141335
# 157785
# 171542
# 187522
# 202330
# 216445
# 232405
#
# Disc length: 3297 seconds
# Revision: 0
# Processed by: cddbd v1.4PL0 Copyright (c) Steve Scherf et al.
# Submitted via: VisiTrax 2.9.5.181 - For more info visit www.synapsa.com
#
DISCID=df0cdf10
DTITLE=Merle Haggard - Natural High
DYEAR=1900
DGENRE=
TTITLE0=Big City
TTITLE1=Kern River
TTITLE2=You Take Me for Granted
TTITLE3=Are The Good Times Really Over (I Wish A Buck Was Still Silver)
TTITLE4=Reasons To Quit
TTITLE5=What Am I Going To Do With The Rest Of My Life
TTITLE6=Going Where The Lonely Go
TTITLE7=Natural High
TTITLE8=Let's Chase Each Other Around the Room
TTITLE9=A Place To Fall Apart
TTITLE10=Thats The Way Love Goes
TTITLE11=Someday When Things Are Good
TTITLE12=Yesterdays Wine
TTITLE13=My Favourite Memory
TTITLE14=I Always get Lucky With You
TTITLE15=Stop The World (And Let Me Get Off)
EXTD=
EXTT0=
EXTT1=
EXTT2=
EXTT3=
EXTT4=
EXTT5=
EXTT6=
EXTT7=
EXTT8=
EXTT9=
EXTT10=
EXTT11=
EXTT12=
EXTT13=
EXTT14=
EXTT15=
PLAYORDER=
